<?xml version="1.0" encoding="iso-8859-1"?>
<!-- Generator: Adobe Illustrator 17.1.0, SVG Export Plug-In . SVG Version: 6.00 Build 0)  -->
<!DOCTYPE svg PUBLIC "-//W3C//DTD SVG 1.1//EN" "http://www.w3.org/Graphics/SVG/1.1/DTD/svg11.dtd">
<svg version="1.1" id="Capa_1" xmlns="http://www.w3.org/2000/svg" xmlns:xlink="http://www.w3.org/1999/xlink" x="0px" y="0px"
	 viewBox="0 0 185.465 185.465" style="enable-background:new 0 0 185.465 185.465;" xml:space="preserve">
<g>
	<path style="fill:#E91E63;" d="M93.353,180.899c-35.087,0-66.823-20.785-80.854-52.952c-0.552-1.266,0.027-2.739,1.293-3.291
		c1.265-0.551,2.739,0.027,3.291,1.292c13.234,30.344,43.172,49.951,76.27,49.951c45.857,0,83.166-37.309,83.166-83.167v-0.199
		c0-1.381,1.119-2.5,2.5-2.5s2.5,1.119,2.5,2.5v0.199C181.519,141.347,141.969,180.899,93.353,180.899z M7.686,95.332
		c-1.381,0-2.5-1.119-2.5-2.5v-0.1c0-48.615,39.552-88.167,88.167-88.167c35.042,0,66.762,20.748,80.811,52.858
		c0.554,1.265-0.023,2.739-1.288,3.292c-1.265,0.551-2.739-0.023-3.292-1.289c-13.253-30.29-43.175-49.862-76.23-49.862
		c-45.858,0-83.167,37.308-83.167,83.167v0.1C10.186,94.213,9.067,95.332,7.686,95.332z" stroke="#E91E63" stroke-width="5"/>
	<path style="fill:#E91E63;" d="M2.5,132.152c-0.6,0-1.191-0.216-1.657-0.628c-0.722-0.639-1.012-1.637-0.745-2.563l5.46-18.969
		c0.208-0.724,0.731-1.315,1.424-1.609s1.482-0.262,2.147,0.091l17.449,9.23c0.853,0.451,1.369,1.352,1.329,2.315
		c-0.041,0.964-0.633,1.818-1.52,2.195l-22.909,9.739C3.163,132.086,2.83,132.152,2.5,132.152z M9.511,114.331l-3.155,10.965
		l13.242-5.63L9.511,114.331z" stroke="#E91E63" stroke-width="5"/>
	<path style="fill:#E91E63;" d="M178.222,75.265c-0.371,0-0.742-0.083-1.085-0.248l-17.783-8.567c-0.869-0.419-1.42-1.3-1.415-2.264
		c0.005-0.964,0.563-1.84,1.436-2.25L181.9,51.341c0.873-0.412,1.903-0.283,2.649,0.329s1.073,1.598,0.842,2.534l-4.743,19.162
		c-0.181,0.731-0.682,1.341-1.363,1.662C178.948,75.186,178.585,75.265,178.222,75.265z M166.255,64.225l10.279,4.952l2.742-11.076
		L166.255,64.225z" stroke="#E91E63" stroke-width="5"/>
	<path style="fill:#E91E63;" d="M136.174,143.106H49.291c-1.381,0-2.5-1.119-2.5-2.5V86.149h-8.36c-1.021,0-1.938-0.621-2.319-1.567
		c-0.381-0.947-0.147-2.031,0.589-2.737l54.302-52.072c0.967-0.928,2.494-0.928,3.461,0l54.302,52.072
		c0.736,0.706,0.97,1.79,0.589,2.737c-0.381,0.947-1.299,1.567-2.319,1.567h-8.36v54.457
		C138.674,141.987,137.555,143.106,136.174,143.106z M51.791,138.106h81.883V83.649c0-1.381,1.119-2.5,2.5-2.5h4.642L92.732,35.04
		L44.649,81.149h4.642c1.381,0,2.5,1.119,2.5,2.5V138.106z" stroke="#E91E63" stroke-width="5"/>
	<path style="fill:#E91E63;" d="M107.982,122.667h-30.5c-1.381,0-2.5-1.119-2.5-2.5v-31.56c0-1.381,1.119-2.5,2.5-2.5h30.5
		c1.381,0,2.5,1.119,2.5,2.5v31.56C110.482,121.548,109.363,122.667,107.982,122.667z M79.982,117.667h25.5v-26.56h-25.5V117.667z"
		stroke="#E91E63" stroke-width="5"/>
</g>
</svg>
