<svg xmlns="http://www.w3.org/2000/svg" enable-background="new 0 0 70 70" viewBox="0 0 70 70"><path fill="#E91E63" d="M58.8,34.4C58.4,33.8,48.1,20.6,35,20.6c-13.1,0-23.4,13.3-23.8,13.8c-0.3,0.4-0.3,0.9,0,1.2c0.4,0.6,10.7,13.8,23.8,13.8
	c13.1,0,23.4-13.2,23.8-13.8C59.1,35.3,59.1,34.8,58.8,34.4z M35,47.4c-10.5,0-19.5-9.8-21.7-12.4c2.2-2.6,11.2-12.4,21.7-12.4
	c10.5,0,19.5,9.9,21.7,12.4C54.5,37.6,45.5,47.4,35,47.4z"/><path fill="#E91E63" d="M35,26.1c-4.9,0-8.9,4-8.9,8.9c0,4.9,4,8.9,8.9,8.9s8.9-4,8.9-8.9C43.9,30.1,39.9,26.1,35,26.1z M35,41.9
	c-3.8,0-6.9-3.1-6.9-6.9c0-3.8,3.1-6.9,6.9-6.9s6.9,3.1,6.9,6.9C41.9,38.8,38.8,41.9,35,41.9z"/><path fill="#E91E63" d="M35 31.6c-1.9 0-3.4 1.5-3.4 3.4 0 1.9 1.5 3.4 3.4 3.4 1.9 0 3.4-1.5 3.4-3.4C38.4 33.1 36.9 31.6 35 31.6zM35 36.4c-.8 0-1.4-.6-1.4-1.4 0-.8.6-1.4 1.4-1.4.8 0 1.4.6 1.4 1.4C36.4 35.8 35.8 36.4 35 36.4zM36 17.5v-4.1c0-.6-.4-1-1-1s-1 .4-1 1v4.1c0 .6.4 1 1 1S36 18 36 17.5zM28.3 19.8c.1 0 .3 0 .4-.1.5-.2.8-.8.5-1.3l-1.6-3.8c-.2-.5-.8-.8-1.3-.5-.5.2-.8.8-.5 1.3l1.6 3.8C27.5 19.6 27.9 19.8 28.3 19.8zM26.7 56c.4 0 .8-.2.9-.6l1.6-3.8c.2-.5 0-1.1-.5-1.3-.5-.2-1.1 0-1.3.5l-1.6 3.8c-.2.5 0 1.1.5 1.3C26.5 56 26.6 56 26.7 56zM36 56.7v-4.1c0-.6-.4-1-1-1s-1 .4-1 1v4.1c0 .6.4 1 1 1S36 57.2 36 56.7zM43.3 56c.1 0 .3 0 .4-.1.5-.2.8-.8.5-1.3l-1.6-3.8c-.2-.5-.8-.8-1.3-.5-.5.2-.8.8-.5 1.3l1.6 3.8C42.5 55.8 42.9 56 43.3 56zM41.7 19.8c.4 0 .8-.2.9-.6l1.6-3.8c.2-.5 0-1.1-.5-1.3-.5-.2-1.1 0-1.3.5l-1.6 3.8c-.2.5 0 1.1.5 1.3C41.5 19.8 41.6 19.8 41.7 19.8z"/></svg>