<svg xmlns="http://www.w3.org/2000/svg" viewBox="0 0 32 32"><path fill="#E91E63" d="M29.81,15.42c-.21-.29-5.06-6.93-13-7.38A7.56,7.56,0,0,0,16,8c-.32,0-.64,0-1,.06C9,8.7,2.58,15,2.29,15.29a1,1,0,0,0,0,1.42C2.58,17,9,23.3,15,23.94c.32,0,.64.06,1,.06s.64,0,1-.06c6.07-.64,12.46-7,12.75-7.23A1,1,0,0,0,29.81,15.42ZM22,16a6,6,0,0,1-5.33,6c-.23,0-.45,0-.67,0s-.44,0-.66,0a6,6,0,0,1,0-11.92c.22,0,.44,0,.66,0A6,6,0,0,1,22,16ZM8.71,12.73a7.89,7.89,0,0,0,0,6.54A35.28,35.28,0,0,1,4.46,16,35.28,35.28,0,0,1,8.71,12.73Zm14.58,6.54a7.9,7.9,0,0,0-.4-7.31,19.08,19.08,0,0,1,4.75,3.95A36.72,36.72,0,0,1,23.29,19.27ZM12,16a4,4,0,1,0,4-4A4,4,0,0,0,12,16Zm6,0a2,2,0,1,1-2-2A2,2,0,0,1,18,16Z" data-name="97  View, Eye, Look, Preview"/></svg>